<?xml version="1.0" encoding="UTF-8" standalone="no"?>
<!-- Generator: Adobe Illustrator 16.0.0, SVG Export Plug-In . SVG Version: 6.00 Build 0)  -->

<svg
  xmlns:dc="http://purl.org/dc/elements/1.1/"
  xmlns:cc="http://creativecommons.org/ns#"
  xmlns:rdf="http://www.w3.org/1999/02/22-rdf-syntax-ns#"
  xmlns:sodipodi="http://sodipodi.sourceforge.net/DTD/sodipodi-0.dtd"
  xmlns:inkscape="http://www.inkscape.org/namespaces/inkscape"
  xmlns="http://www.w3.org/2000/svg"
  version="1.1"
  id="Capa_1"
  x="0px"
  y="0px"
  width="485.213px"
  height="485.213px"
  viewBox="0 0 485.213 485.213"
  style="enable-background:new 0 0 485.213 485.213;"
  xml:space="preserve"
  sodipodi:docname="magnifier-1_icon-icons.com_56924.svg"
  inkscape:version="0.92.4 (f8dce91, 2019-08-02)"><metadata
   id="metadata5452"><rdf:RDF><cc:Work
       rdf:about=""><dc:format>image/svg+xml</dc:format><dc:type
  rdf:resource="http://purl.org/dc/dcmitype/StillImage"/><dc:title></dc:title></cc:Work></rdf:RDF></metadata>
  <defs
    id="defs5450"/>
  <sodipodi:namedview
    pagecolor="#ffffff"
    bordercolor="#666666"
    borderopacity="1"
    objecttolerance="10"
    gridtolerance="10"
    guidetolerance="10"
    inkscape:pageopacity="0"
    inkscape:pageshadow="2"
    inkscape:window-width="1920"
    inkscape:window-height="1052"
    id="namedview5448"
    showgrid="false"
    inkscape:pagecheckerboard="true"
    inkscape:zoom="1.3757026"
    inkscape:cx="260.40793"
    inkscape:cy="185.13484"
    inkscape:window-x="0"
    inkscape:window-y="0"
    inkscape:window-maximized="1"
    inkscape:current-layer="Capa_1"/>
  <g
    id="g5415"
    transform="matrix(0.73633136,0,0,0.73633136,63.967578,63.967858)">
	<g
    id="g5413">
		<path
      d="M 471.882,407.567 360.567,296.243 c -16.586,25.795 -38.536,47.734 -64.331,64.321 L 407.56,471.888 c 17.772,17.768 46.587,17.768 64.321,0 17.773,-17.739 17.773,-46.554 0.001,-64.321 z"
      id="path5407"
      style="fill:#ffffff"
      inkscape:connector-curvature="0"/>
    <path
      d="M 363.909,181.955 C 363.909,81.473 282.44,0 181.956,0 81.474,0 0.001,81.473 0.001,181.955 c 0,100.482 81.473,181.951 181.955,181.951 100.484,0 181.953,-81.469 181.953,-181.951 z M 181.956,318.416 c -75.252,0 -136.465,-61.208 -136.465,-136.46 0,-75.252 61.213,-136.465 136.465,-136.465 75.25,0 136.468,61.213 136.468,136.465 0,75.252 -61.218,136.46 -136.468,136.46 z"
      id="path5409"
      style="fill:#ffffff"
      inkscape:connector-curvature="0"/>
    <path
      d="m 75.817,181.955 h 30.322 c 0,-41.803 34.014,-75.814 75.816,-75.814 V 75.816 c -58.517,0 -106.138,47.621 -106.138,106.139 z"
      id="path5411"
      style="fill:#ffffff"
      inkscape:connector-curvature="0"/>
	</g>
</g>
  <g
    id="g5417">
</g>
  <g
    id="g5419">
</g>
  <g
    id="g5421">
</g>
  <g
    id="g5423">
</g>
  <g
    id="g5425">
</g>
  <g
    id="g5427">
</g>
  <g
    id="g5429">
</g>
  <g
    id="g5431">
</g>
  <g
    id="g5433">
</g>
  <g
    id="g5435">
</g>
  <g
    id="g5437">
</g>
  <g
    id="g5439">
</g>
  <g
    id="g5441">
</g>
  <g
    id="g5443">
</g>
  <g
    id="g5445">
</g>
</svg>
